<svg width="30" height="30" viewBox="0 0 30 30" fill="none" xmlns="http://www.w3.org/2000/svg">
<path fill-rule="evenodd" clip-rule="evenodd" d="M13.5859 15L8.63615 10.0502C8.24563 9.65972 8.24563 9.02656 8.63615 8.63603C9.02668 8.24551 9.65984 8.24551 10.0504 8.63603L15.0001 13.5858L19.9499 8.63603C20.3404 8.24551 20.9736 8.24551 21.3641 8.63603C21.7546 9.02656 21.7546 9.65972 21.3641 10.0502L16.4143 15L21.3641 19.9497C21.7546 20.3403 21.7546 20.9734 21.3641 21.364C20.9736 21.7545 20.3404 21.7545 19.9499 21.364L15.0001 16.4142L10.0504 21.364C9.65984 21.7545 9.02668 21.7545 8.63615 21.364C8.24563 20.9734 8.24563 20.3403 8.63615 19.9497L13.5859 15Z" fill="#60a9f9"/>
</svg>
