<svg width="30" height="28" viewBox="0 0 30 28" fill="none" xmlns="http://www.w3.org/2000/svg">
<path fill-rule="evenodd" clip-rule="evenodd" d="M19 5H22C22.5523 5 23 5.44772 23 6H7C7 5.44772 7.44772 5 8 5H11C11 3.89543 11.8954 3 13 3H17C18.1046 3 19 3.89543 19 5ZM7.94737 6.92063H22.0177L21.3158 23.74C21.3158 23.74 21.0509 25 20.0522 25H9.94695C8.94863 25 8.68379 23.74 8.68379 23.74L7.94737 6.92063ZM18.9 9H17.9L17.4 23.4377H18.4L18.9 9ZM12.5 23.4377L12.0002 9H11L11.4998 23.4377H12.5ZM14.5 9V23.4377H15.5V9H14.5Z" fill="#FF453A"/>
</svg>
