<svg width="28" height="30" viewBox="0 0 28 30" fill="none" xmlns="http://www.w3.org/2000/svg">
<path fill-rule="evenodd" clip-rule="evenodd" d="M14 27C20.6274 27 26 21.6274 26 15C26 8.37258 20.6274 3 14 3C7.37258 3 2 8.37258 2 15C2 21.6274 7.37258 27 14 27Z" fill="#0A84FF"/>
<path fill-rule="evenodd" clip-rule="evenodd" d="M15 14V9.75C15 9.33579 14.5523 9 14 9C13.4477 9 13 9.33579 13 9.75V14H9C8.44772 14 8 14.4477 8 15C8 15.5523 8.44772 16 9 16H13V20.25C13 20.6642 13.4477 21 14 21C14.5523 21 15 20.6642 15 20.25V16H19C19.5523 16 20 15.5523 20 15C20 14.4477 19.5523 14 19 14H15Z" fill="white"/>
</svg>
