<svg xmlns="http://www.w3.org/2000/svg" xmlns:xlink="http://www.w3.org/1999/xlink" version="1.1" x="0px" y="0px" viewBox="0 0 100 125" enable-background="new 0 0 100 100" xml:space="preserve" fill="#E50914"><path d="M70.5,29c4.188,0,7.584-3.396,7.584-7.583V10.583C78.084,6.396,74.688,3,70.5,3s-7.584,3.396-7.584,7.583v10.834  C62.916,25.604,66.313,29,70.5,29z M29.5,29c4.188,0,7.584-3.396,7.584-7.583V10.583C37.084,6.396,33.688,3,29.5,3  s-7.584,3.396-7.584,7.583v10.834C21.916,25.604,25.313,29,29.5,29z M97.813,15.5H80.396v5.917c0,5.56-4.523,10.083-10.084,10.083  s-10.084-4.523-10.084-10.083V15.5H39.396v5.917c0,5.56-4.523,10.083-10.084,10.083s-10.084-4.523-10.084-10.083V15.5H2.188  c-0.553,0-1,0.447-1,1v21.833h97.625V16.5C98.813,15.947,98.365,15.5,97.813,15.5z M1.188,98c0,0.553,0.447,1,1,1h95.625  c0.553,0,1-0.447,1-1V42.333H1.188V98z M72.387,53.875h12.792v12.792H72.387V53.875z M72.387,72.125h12.792v12.792H72.387V72.125z   M53.198,53.875H65.99v12.792H53.198V53.875z M53.198,72.125H65.99v12.792H53.198V72.125z M34.01,53.875h12.792v12.792H34.01V53.875  z M34.01,72.125h12.792v12.792H34.01V72.125z M14.821,53.875h12.792v12.792H14.821V53.875z M14.821,72.125h12.792v12.792H14.821  V72.125z"/></svg>